<?xml version="1.0" standalone="no"?>
<!DOCTYPE svg PUBLIC "-//W3C//DTD SVG 20010904//EN"
 "http://www.w3.org/TR/2001/REC-SVG-20010904/DTD/svg10.dtd">
<svg version="1.0" xmlns="http://www.w3.org/2000/svg"
 width="416.000000pt" height="418.000000pt" viewBox="0 0 416.000000 418.000000"
 preserveAspectRatio="xMidYMid meet">
<g transform="translate(0.000000,418.000000) scale(0.100000,-0.100000)"
fill="#000000" stroke="none">
<path d="M1825 4170 c-932 -113 -1676 -850 -1810 -1792 -17 -121 -20 -416 -4
-538 77 -625 432 -1185 959 -1517 210 -133 469 -237 700 -282 100 -20 313 -41
410 -41 97 0 310 21 410 41 389 76 772 282 1060 569 307 308 502 683 586 1130
22 115 30 469 15 597 -102 831 -685 1526 -1477 1762 -191 57 -307 73 -549 76
-126 2 -261 0 -300 -5z m475 -325 c370 -50 704 -206 973 -456 707 -656 758
-1759 114 -2479 -525 -586 -1380 -750 -2090 -400 -459 227 -808 666 -926 1165
-78 329 -65 647 40 971 208 641 764 1104 1439 1199 127 17 322 18 450 0z"/>
<path d="M1930 3529 c-459 -46 -885 -330 -1106 -736 -264 -483 -238 -1052 68
-1513 72 -109 227 -271 338 -353 153 -113 376 -211 575 -253 70 -15 132 -19
275 -19 208 0 293 13 465 72 416 143 746 471 891 888 184 526 48 1114 -349
1506 -239 236 -539 376 -876 409 -116 11 -159 11 -281 -1z m325 -324 c411 -67
752 -358 885 -753 181 -540 -63 -1123 -575 -1373 -500 -244 -1107 -76 -1417
392 -369 557 -171 1320 420 1622 218 112 455 150 687 112z"/>
<path d="M1981 2880 c-324 -44 -582 -270 -673 -587 -32 -111 -32 -295 0 -408
48 -168 141 -313 263 -411 86 -69 155 -106 269 -146 90 -30 102 -32 240 -32
138 0 150 2 240 32 166 58 285 139 385 265 249 312 226 754 -54 1051 -165 173
-433 268 -670 236z m207 -325 c93 -22 159 -60 233 -134 95 -96 139 -200 139
-331 0 -188 -102 -351 -276 -436 l-78 -39 -126 0 -126 0 -78 39 c-248 122
-345 403 -225 653 30 63 140 173 207 207 105 53 218 67 330 41z"/>
</g>
</svg>