<?xml version="1.0" standalone="no"?>
<!DOCTYPE svg PUBLIC "-//W3C//DTD SVG 20010904//EN"
 "http://www.w3.org/TR/2001/REC-SVG-20010904/DTD/svg10.dtd">
<svg version="1.0" xmlns="http://www.w3.org/2000/svg"
 width="205.000000pt" height="211.000000pt" viewBox="0 0 205.000000 211.000000"
 preserveAspectRatio="xMidYMid meet">
<g transform="translate(0.000000,211.000000) scale(0.100000,-0.100000)"
fill="#000000" stroke="none">
<path d="M0 1952 l0 -162 58 0 c31 0 104 -7 162 -15 669 -90 1222 -539 1439
-1168 61 -178 101 -394 101 -552 l0 -55 145 0 145 0 0 208 c0 185 -3 217 -24
307 -96 394 -303 750 -597 1029 -353 336 -826 542 -1291 563 l-138 6 0 -161z"/>
<path d="M0 1310 l0 -160 43 0 c72 0 218 -28 310 -59 334 -114 595 -375 707
-709 34 -103 60 -241 60 -323 l0 -59 160 0 160 0 0 35 c0 20 -5 79 -10 133
-35 336 -184 647 -423 883 -190 188 -448 329 -697 383 -63 13 -249 36 -296 36
-11 0 -14 -30 -14 -160z"/>
<path d="M0 662 l0 -158 73 -12 c108 -18 187 -60 266 -140 91 -90 141 -201
141 -309 l0 -43 160 0 160 0 0 43 c0 73 -38 227 -74 303 -129 272 -365 438
-663 467 l-63 7 0 -158z"/>
</g>
</svg>